<?xml version="1.0" standalone="no"?>
<!DOCTYPE svg PUBLIC "-//W3C//DTD SVG 20010904//EN"
 "http://www.w3.org/TR/2001/REC-SVG-20010904/DTD/svg10.dtd">
<svg version="1.0" xmlns="http://www.w3.org/2000/svg"
 width="300.000000pt" height="300.000000pt" viewBox="0 0 300.000000 300.000000"
 preserveAspectRatio="xMidYMid meet">
<metadata>
Created by potrace 1.11, written by Peter Selinger 2001-2013
</metadata>
<g transform="translate(0.000000,300.000000) scale(0.100000,-0.100000)"
fill="#000000" stroke="none">
<path d="M1500 1500 l0 -1500 750 0 750 0 0 1500 0 1500 -750 0 -750 0 0
-1500z m830 1356 c0 -34 -5 -56 -12 -58 -7 -3 -113 -20 -236 -39 -122 -18
-214 -36 -205 -40 10 -3 116 -21 236 -39 l217 -34 0 -56 0 -56 -340 65 -340
65 0 58 c0 57 0 57 33 63 17 4 167 33 332 65 165 32 303 59 308 59 4 1 7 -23
7 -53z m-340 -406 c168 -39 313 -73 323 -76 13 -4 17 -16 17 -48 l0 -42 -332
-77 c-183 -43 -336 -77 -340 -77 -5 0 -8 24 -8 54 l0 54 58 8 57 9 3 71 3 71
-61 12 -60 12 0 55 c0 48 2 55 18 50 9 -3 154 -37 322 -76z m340 -488 c0 -92
-3 -114 -22 -152 -32 -61 -72 -80 -171 -80 -88 0 -134 15 -165 55 l-21 27
-151 -50 -150 -50 0 58 0 58 70 21 c39 12 102 30 140 42 66 20 70 23 70 50 l0
29 -140 0 -140 0 0 50 0 50 340 0 340 0 0 -108z m-64 -348 c55 -40 69 -70 69
-142 0 -79 -22 -125 -75 -157 -33 -19 -52 -20 -277 -20 -228 0 -243 1 -269 21
-49 36 -67 70 -72 132 -6 85 22 146 80 172 40 19 62 20 280 18 221 -3 238 -4
264 -24z m62 -451 l-3 -46 -215 -76 -215 -76 218 -3 217 -2 0 -50 0 -50 -340
0 -340 0 0 48 0 47 208 77 207 77 -207 0 -208 1 0 50 0 50 341 0 340 0 -3 -47z
m2 -533 l0 -150 -50 0 -50 0 0 100 0 100 -95 0 -94 0 -3 -87 -3 -88 -47 -3
-47 -3 -3 88 -3 88 -92 3 -93 3 0 -101 0 -100 -50 0 -50 0 0 150 0 150 340 0
340 0 0 -150z m-490 -255 c0 -54 0 -55 -30 -55 -34 0 -70 -30 -70 -59 0 -35
33 -63 80 -67 64 -7 89 11 133 91 44 82 82 120 134 134 120 34 231 -19 248
-118 18 -106 -36 -192 -128 -206 -68 -10 -77 -4 -77 55 0 49 1 50 31 50 51 0
69 16 69 60 0 46 -18 60 -78 60 -53 0 -75 -20 -125 -114 -54 -100 -79 -116
-192 -116 -132 0 -185 41 -193 149 -9 118 52 186 171 190 26 1 27 0 27 -54z"/>
<path d="M1870 2329 c0 -51 0 -51 28 -46 15 3 71 14 124 23 54 10 96 19 95 21
-2 1 -48 12 -103 23 -54 11 -109 22 -121 25 -22 5 -23 2 -23 -46z"/>
<path d="M2040 1915 c0 -66 12 -75 98 -75 74 0 92 17 92 83 l0 47 -95 0 -95 0
0 -55z"/>
<path d="M1769 1520 c-34 -20 -31 -88 5 -112 6 -4 101 -8 211 -8 228 0 245 5
245 65 0 63 -8 65 -238 65 -114 0 -214 -5 -223 -10z"/>
<path d="M470 2861 c0 -29 2 -30 53 -33 l52 -3 3 -202 2 -203 35 0 35 0 2 203
3 202 53 3 c50 3 52 4 52 33 l0 29 -145 0 -145 0 0 -29z"/>
<path d="M800 2655 l0 -235 35 0 35 0 0 100 0 100 70 0 70 0 0 -100 0 -100 35
0 35 0 0 235 0 235 -35 0 -35 0 0 -100 0 -100 -70 0 -70 0 0 100 0 100 -35 0
-35 0 0 -235z"/>
<path d="M1150 2655 l0 -235 130 0 130 0 0 35 0 35 -95 0 -95 0 0 65 0 65 80
0 80 0 0 35 0 35 -80 0 -80 0 0 65 0 65 95 0 95 0 0 35 0 35 -130 0 -130 0 0
-235z"/>
</g>
</svg>
